:SAMPLES-PER-SECOND 30
:FULLY-SPECIFIED
:DEGREES
101
root  3.49618 39.3089 10.2666 -176.515 -76.2487 171.956
RightUpLeg  -3.15469 -9.01205 1.84402
RightLeg  15.8255 -15.9235 -1.06541
RightFoot  -10.3257 -0.016568 -5.97556
RightToes  2.91037e-010 0 -3.6325e-017
Spine  9.60635 -0.709914 9.87688
Spine1  8.3399 0.912439 -0.648611
HEad  9.55626 -0.432516 -4.58158
LeftShoulder1  -0.345317 4.54088 -27.1101
LeftArm  12.9719 -7.2524 -52.925
LeftForeArm  87.7944 -80.0587 -64.3734
LeftHand  -0.177192 -0.713219 3.46843
RightShoulder  -0.59211 -5.33038 25.6759
RightArm  11.5013 -5.57875 45.3925
RightForeArm  7.45679 15.9797 4.71471
RightHand  -0.432625 3.10693 -6.1366
LeftUpLeg  -11.8459 -4.60616 4.21796
LeftLeg  43.437 2.09524 2.49823
LeftFoot  0.0590652 0.386588 -3.8768
LeftToes  -7.53974e-010 3.3384e-011 -1.25048e-011
102
root  2.86271 39.3209 9.76187 -176.955 -73.6883 172.161
RightUpLeg  -1.34274 -8.54132 2.32186
RightLeg  14.8317 -14.3374 -0.995167
RightFoot  -11.0849 -0.0611286 -6.21606
RightToes  2.91037e-010 0 -3.6325e-017
Spine  9.67068 -0.315064 10.1939
Spine1  8.48693 1.44183 -1.39573
HEad  9.39322 1.25324 -5.47012
LeftShoulder1  -0.322966 4.45015 -27.9446
LeftArm  12.4008 -5.5094 -51.7186
LeftForeArm  71.1431 -75.7388 -36.074
LeftHand  -0.0188037 -0.318359 0.401607
RightShoulder  -0.579082 -5.30551 25.3894
RightArm  12.7643 -4.65486 45.9721
RightForeArm  5.68929 18.0907 4.60094
RightHand  -0.477151 3.67674 -6.35931
LeftUpLeg  -13.2155 -9.46121 3.03141
LeftLeg  39.6576 3.35012 3.34816
LeftFoot  -1.18697 0.237605 -2.59358
LeftToes  -7.53974e-010 3.3384e-011 -1.25048e-011
103
root  2.23693 39.3316 9.18034 -177.598 -70.7095 172.937
RightUpLeg  0.344407 -7.76913 3.06801
RightLeg  13.473 -12.3963 -0.836474
RightFoot  -11.7197 -0.100837 -6.64571
RightToes  2.91037e-010 0 -3.6325e-017
Spine  9.6685 0.204396 10.4503
Spine1  8.34323 2.13128 -2.55593
HEad  8.7095 2.86123 -5.33914
LeftShoulder1  -0.328116 4.45451 -28.3324
LeftArm  12.6635 -4.1655 -50.7196
LeftForeArm  63.9926 -68.3244 -21.3613
LeftHand  0.0472732 0.223028 -1.08801
RightShoulder  -0.592802 -5.32531 25.807
RightArm  14.6136 -3.48141 46.1905
RightForeArm  5.22018 20.1684 4.5402
RightHand  -0.447157 3.456 -6.10969
LeftUpLeg  -14.5706 -12.3874 2.48267
LeftLeg  34.5105 2.99787 2.58133
LeftFoot  -1.90369 0.15852 -1.79573
LeftToes  -7.53974e-010 3.3384e-011 -1.25048e-011
104
root  1.6187 39.3459 8.57139 -178.128 -68.0131 173.385
RightUpLeg  2.30293 -6.92227 3.8091
RightLeg  12.1717 -10.6826 -1.01971
RightFoot  -12.1876 -0.132201 -6.7487
RightToes  2.91037e-010 0 -3.6325e-017
Spine  9.67268 0.655526 10.4695
Spine1  8.59438 2.71343 -3.48142
HEad  8.20784 4.52107 -5.67243
LeftShoulder1  -0.376984 4.586 -28.6698
LeftArm  13.6654 -3.91981 -50.1064
LeftForeArm  53.728 -57.2839 -12.739
LeftHand  -0.00868151 0.28265 0.199742
RightShoulder  -0.58497 -5.29142 25.9786
RightArm  15.6875 -2.27317 46.9097
RightForeArm  5.39889 21.486 4.54526
RightHand  -0.515883 4.25026 -6.48375
LeftUpLeg  -15.2614 -13.5251 1.78257
LeftLeg  28.2324 1.59576 1.26453
LeftFoot  -2.16018 0.245948 -2.89472
LeftToes  -7.53974e-010 3.3384e-011 -1.25048e-011
105
root  0.985887 39.3058 7.92354 -178.683 -66.2042 173.758
RightUpLeg  4.47085 -6.58266 4.30587
RightLeg  11.0275 -9.36352 -0.875886
RightFoot  -12.9973 -0.184589 -6.71885
RightToes  2.91037e-010 0 -3.6325e-017
Spine  9.91096 0.867817 10.0841
Spine1  8.54717 2.89424 -3.82756
HEad  7.56906 6.14954 -5.7305
LeftShoulder1  -0.366228 4.54959 -28.8517
LeftArm  15.6656 -4.06738 -49.8306
LeftForeArm  41.7544 -44.7405 -8.20072
LeftHand  -0.0401422 1.07375 0.92025
RightShoulder  -0.583499 -5.28491 26.0154
RightArm  15.7018 -1.53203 47.8943
RightForeArm  6.00762 22.2711 4.55207
RightHand  -0.540386 4.65832 -6.52415
LeftUpLeg  -15.8424 -12.4233 0.529571
LeftLeg  22.2736 0.319467 0.459628
LeftFoot  -2.15543 0.315671 -3.76887
LeftToes  -7.53974e-010 3.3384e-011 -1.25048e-011
106
root  0.354165 39.2359 7.23888 -179.493 -65.1347 174.346
RightUpLeg  6.84093 -6.29482 4.93052
RightLeg  9.73578 -8.88861 -0.650495
RightFoot  -13.8491 -0.2367 -6.52704
RightToes  2.91037e-010 0 -3.6325e-017
Spine  10.024 0.784701 9.87156
Spine1  8.81217 2.90705 -4.60027
HEad  7.29975 7.50436 -5.41608
LeftShoulder1  -0.342325 4.48222 -28.8026
LeftArm  20.2232 -4.84351 -49.8049
LeftForeArm  26.4418 -31.3659 -5.19805
LeftHand  -0.0231504 1.38362 0.522407
RightShoulder  -0.572952 -5.2409 26.2151
RightArm  16.0919 -0.840098 48.9715
RightForeArm  5.96501 22.5457 4.58493
RightHand  -0.505978 4.2423 -6.36841
LeftUpLeg  -16.2269 -8.19086 -1.65824
LeftLeg  17.1613 0.0160217 0.353391
LeftFoot  -2.65795 0.319778 -4.00159
LeftToes  -7.53974e-010 3.3384e-011 -1.25048e-011
107
root  -0.297108 39.1402 6.54393 179.455 -64.491 175.306
RightUpLeg  8.8892 -5.99827 5.72509
RightLeg  9.02824 -8.82879 -0.410874
RightFoot  -14.5698 -0.292446 -6.86724
RightToes  2.91037e-010 0 -3.6325e-017
Spine  10.088 0.578132 9.64656
Spine1  9.1581 2.74305 -5.03117
HEad  6.65025 9.02059 -5.24563
LeftShoulder1  -0.419555 4.68342 -29.4179
LeftArm  21.0591 -5.66836 -49.0767
LeftForeArm  17.3741 -18.9528 -5.60702
LeftHand  -0.0268875 3.76388 0.489312
RightShoulder  -0.493724 -5.02201 25.7004
RightArm  16.6901 -0.726067 50.3585
RightForeArm  5.88089 22.6975 4.60965
RightHand  -0.511336 4.13819 -6.49718
LeftUpLeg  -16.3304 -1.52496 -4.66421
LeftLeg  12.7893 1.60764 0.58967
LeftFoot  -2.64403 0.377078 -4.74786
LeftToes  -7.53974e-010 3.3384e-011 -1.25048e-011
108
root  -1.00018 39.0038 5.82327 177.903 -63.9251 176.654
RightUpLeg  11.1062 -5.9649 6.43193
RightLeg  8.54152 -8.53823 0.231905
RightFoot  -15.272 -0.35767 -7.41352
RightToes  2.91037e-010 0 -3.6325e-017
Spine  10.0974 0.557647 9.64846
Spine1  9.78462 2.8723 -5.54713
HEad  6.34821 9.77874 -5.11356
LeftShoulder1  -0.413308 4.65757 -29.6716
LeftArm  2.01544 -5.44237 -47.7351
LeftForeArm  33.5856 -7.11548 -10.8385
LeftHand  -0.0464867 5.88419 -1.04439
RightShoulder  -0.495713 -5.014 25.9903
RightArm  17.5126 -0.658 50.8057
RightForeArm  5.46382 22.5007 4.61724
RightHand  -0.53131 4.08877 -6.76944
LeftUpLeg  -15.7934 3.50302 -6.98643
LeftLeg  9.23949 7.61942 0.0916946
LeftFoot  -2.558 0.392116 -4.90676
LeftToes  -7.53974e-010 3.3384e-011 -1.25048e-011
109
root  -1.75134 38.819 5.03242 176.242 -63.4657 178.254
RightUpLeg  13.3059 -5.86032 7.35579
RightLeg  8.1224 -8.47599 0.949544
RightFoot  -16.2465 -0.425846 -7.37106
RightToes  2.91037e-010 0 -3.6325e-017
Spine  9.70462 0.765177 9.51783
Spine1  10.8097 3.17428 -5.81828
HEad  6.27344 10.0166 -5.03278
LeftShoulder1  -0.392861 4.59226 -29.9467
LeftArm  -3.12213 -2.68423 -46.3069
LeftForeArm  41.4462 -3.14572 -9.54725
LeftHand  -0.129767 8.10465 -3.63622
RightShoulder  -0.555492 -5.17963 26.3798
RightArm  18.8124 -0.96227 50.7957
RightForeArm  5.36645 22.4766 4.62844
RightHand  -0.553953 4.56419 -6.74057
LeftUpLeg  -14.8431 4.07721 -7.85485
LeftLeg  6.85816 18.2673 -1.25217
LeftFoot  -3.11082 0.337269 -4.42367
LeftToes  -7.53974e-010 3.3384e-011 -1.25048e-011
110
root  -2.57261 38.5516 4.16378 174.962 -62.9309 -179.937
RightUpLeg  14.4749 -6.27353 8.05256
RightLeg  9.07217 -7.47122 1.94861
RightFoot  -17.511 -0.499593 -7.06778
RightToes  2.91037e-010 0 -3.6325e-017
Spine  9.31886 1.13312 9.34676
Spine1  10.7125 3.54691 -5.93527
HEad  5.8753 10.4387 -4.79415
LeftShoulder1  -0.438738 4.70747 -30.2871
LeftArm  -3.43545 1.50749 -44.038
LeftForeArm  46.8403 -3.11781 -9.32519
LeftHand  -0.123812 7.49632 -4.30162
RightShoulder  -0.588894 -5.25841 26.8171
RightArm  19.7693 -2.07553 50.4693
RightForeArm  6.23487 22.2301 4.58278
RightHand  -0.503258 4.4687 -6.21104
LeftUpLeg  -14.5688 5.04619 -8.65483
LeftLeg  6.62858 25.0905 -2.02682
LeftFoot  -4.16255 0.238784 -3.46882
LeftToes  -7.53974e-010 3.3384e-011 -1.25048e-011
111
root  -3.4509 38.2786 3.22806 174.162 -61.9972 -178.742
RightUpLeg  15.7458 -9.27875 7.35937
RightLeg  10.9473 -3.08773 3.02866
RightFoot  -18.7506 -0.531199 -6.25577
RightToes  2.91037e-010 0 -3.6325e-017
Spine  8.68404 1.69787 8.80988
Spine1  11.2628 4.19089 -6.1863
HEad  5.54009 11.729 -4.09699
LeftShoulder1  -0.570702 5.05562 -30.6304
LeftArm  -1.45289 6.06475 -40.7771
LeftForeArm  47.4122 -5.66401 -10.0525
LeftHand  -0.0887879 6.51242 -4.59586
RightShoulder  -0.630872 -5.35822 27.314
RightArm  20.5549 -3.01361 50.3738
RightForeArm  6.33709 21.1769 4.6354
RightHand  -0.48262 3.67655 -6.42906
LeftUpLeg  -14.4893 5.93539 -9.66196
LeftLeg  8.3714 25.4596 -1.18749
LeftFoot  -5.52541 0.0491306 0.0730387
LeftToes  -7.53974e-010 3.3384e-011 -1.25048e-011
112
root  -4.34532 38.0693 2.26786 174.889 -60.7844 -179.186
RightUpLeg  16.6583 -17.7105 3.37247
RightLeg  15.4701 8.3 4.75663
RightFoot  -19.5656 -0.441077 -4.38988
RightToes  2.91037e-010 0 -3.6325e-017
Spine  8.24788 2.39209 7.31091
Spine1  11.6589 5.03708 -6.83516
HEad  5.39973 12.4656 -3.37811
LeftShoulder1  -0.630112 5.21684 -30.6319
LeftArm  1.63994 11.2416 -37.6075
LeftForeArm  41.7377 -8.91104 -9.8916
LeftHand  -0.0439627 5.75047 -3.30337
RightShoulder  -0.665186 -5.42037 27.9949
RightArm  21.436 -3.84044 50.1243
RightForeArm  6.38304 19.4051 4.99101
RightHand  -0.515445 4.38674 -6.39162
LeftUpLeg  -15.4114 5.59759 -10.8548
LeftLeg  12.2277 23.6804 1.4533
LeftFoot  -6.81772 -0.36657 9.92207
LeftToes  -7.53974e-010 3.3384e-011 -1.25048e-011
113
root  -5.2 37.92 1.37279 176.889 -60.0751 178.484
RightUpLeg  15.4064 -24.7331 -2.14074
RightLeg  26.1781 19.0002 9.49159
RightFoot  -18.4928 -0.149945 -0.27446
RightToes  2.91037e-010 0 -3.6325e-017
Spine  8.78973 2.84083 4.54631
Spine1  11.398 5.37171 -7.23121
HEad  5.23587 13.4109 -2.5527
LeftShoulder1  -0.683163 5.35131 -30.797
LeftArm  2.73405 15.6108 -35.017
LeftForeArm  34.9994 -10.9379 -9.08182
LeftHand  -0.0347026 5.4055 -4.0998
RightShoulder  -0.773332 -5.67971 28.9125
RightArm  21.5134 -3.84521 49.7302
RightForeArm  8.17456 17.0932 5.71432
RightHand  -0.457942 3.93811 -5.96181
LeftUpLeg  -16.8643 8.28685 -12.8771
LeftLeg  17.9543 22.2143 5.47656
LeftFoot  -6.75798 -0.51494 13.7877
LeftToes  -7.53974e-010 3.3384e-011 -1.25048e-011
114
root  -5.97432 37.7579 0.60147 179.623 -60.9547 175.447
RightUpLeg  10.3671 -24.1597 -5.70385
RightLeg  40.7438 21.292 18.2773
RightFoot  -13.5764 0.0254444 8.90999
RightToes  2.91037e-010 0 -3.6325e-017
Spine  9.74594 2.6897 1.50757
Spine1  11.0091 4.78605 -7.03453
HEad  5.06373 13.9859 -2.62861
LeftShoulder1  -0.767113 5.54828 -31.3562
LeftArm  0.502738 17.6722 -33.7449
LeftForeArm  29.7343 -11.0199 -8.39987
LeftHand  -0.0410716 5.58912 -3.77662
RightShoulder  -0.796947 -5.74963 28.8503
RightArm  18.6958 -3.81255 50.0101
RightForeArm  11.5246 14.5448 6.31761
RightHand  -0.416073 3.52491 -5.66606
LeftUpLeg  -17.5214 11.3323 -15.39
LeftLeg  21.8912 17.7537 7.87774
LeftFoot  -8.36114 -0.288239 13.0673
LeftToes  -7.53974e-010 3.3384e-011 -1.25048e-011
115
root  -6.69821 37.5522 0.0611937 -178.662 -61.4465 173.309
RightUpLeg  3.59205 -19.2669 -7.21231
RightLeg  53.839 19.472 25.9419
RightFoot  -6.24876 -0.96642 21.0059
RightToes  2.91037e-010 0 -3.6325e-017
Spine  11.5845 2.60731 1.29238
Spine1  10.6337 4.98869 -9.33036
HEad  4.3012 14.1642 -3.32446
LeftShoulder1  -0.678325 5.33839 -30.8235
LeftArm  -2.97643 18.5808 -34.7392
LeftForeArm  28.7148 -10.3453 -7.64993
LeftHand  -0.0821112 6.55902 -4.06971
RightShoulder  -0.715494 -5.55674 28.1956
RightArm  16.2869 -5.53452 49.8723
RightForeArm  12.3423 14.3901 5.93459
RightHand  -0.364122 2.40369 -5.61789
LeftUpLeg  -17.3008 10.9313 -16.1509
LeftLeg  25.0695 17.8956 8.97029
LeftFoot  -10.5351 -0.034169 13.5567
LeftToes  -7.53974e-010 3.3384e-011 -1.25048e-011
